<?xml version="1.0" standalone="no"?>
<!DOCTYPE svg PUBLIC "-//W3C//DTD SVG 20010904//EN"
 "http://www.w3.org/TR/2001/REC-SVG-20010904/DTD/svg10.dtd">
<svg version="1.0" xmlns="http://www.w3.org/2000/svg"
 width="332.000000pt" height="332.000000pt" viewBox="0 0 332.000000 332.000000"
 preserveAspectRatio="xMidYMid meet">
<metadata>
Created by potrace 1.11, written by Peter Selinger 2001-2013
</metadata>
<g transform="translate(0.000000,332.000000) scale(0.100000,-0.100000)"
fill="#000000" stroke="none">
<path d="M527 3153 c-4 -3 -7 -455 -7 -1003 l0 -996 48 -45 c26 -25 196 -172
377 -325 182 -154 415 -351 518 -439 104 -88 198 -161 209 -163 33 -6 71 17
103 61 29 39 746 656 915 787 41 32 87 70 103 84 l27 25 -2 1008 -3 1008 -24
0 c-23 0 -44 -51 -400 -983 l-376 -982 -343 2 -344 3 -28 75 c-48 126 -299
783 -455 1190 -81 212 -167 438 -191 502 -56 153 -80 198 -103 198 -10 0 -21
-3 -24 -7z m2233 -1078 l0 -885 -341 0 c-321 0 -341 1 -334 18 4 9 146 382
316 827 171 446 320 836 332 868 12 31 23 57 24 57 2 0 3 -398 3 -885z m-2140
795 c32 -77 629 -1631 637 -1663 5 -16 -16 -17 -336 -17 l-341 0 0 882 c0 485
2 879 4 877 2 -2 18 -38 36 -79z m702 -1833 c85 -210 269 -700 266 -708 -3 -9
-821 680 -898 757 l-45 44 320 0 320 0 37 -93z m658 77 c0 -14 -283 -762 -300
-793 -4 -8 -10 -10 -13 -4 -11 17 -285 739 -295 777 l-10 36 309 0 c274 0 309
-2 309 -16z m715 6 c-12 -20 -945 -806 -945 -797 0 9 253 673 282 740 11 26
27 47 34 47 8 0 14 5 14 10 0 6 110 10 311 10 197 0 308 -4 304 -10z"/>
</g>
</svg>
