<?xml version="1.0" encoding="UTF-8"?>
<svg width="30px" height="30px" viewBox="0 0 30 30" version="1.1" xmlns="http://www.w3.org/2000/svg" xmlns:xlink="http://www.w3.org/1999/xlink">
    <!-- Generator: Sketch 46.2 (44496) - http://www.bohemiancoding.com/sketch -->
    <title>Group 8</title>
    <desc>Created with Sketch.</desc>
    <defs></defs>
    <g id="Page-1" stroke="none" stroke-width="1" fill="none" fill-rule="evenodd">
        <g id="Desktop_Main_UI" transform="translate(-1010.000000, -31.000000)" fill-rule="nonzero">
            <g id="hero" transform="translate(-766.000000, -160.000000)">
                <g id="header" transform="translate(766.000000, 160.000000)">
                    <g id="bitcoin-icon" transform="translate(1010.000000, 31.000000)">
                        <g id="Group-8">
                            <path d="M15.0001323,0 C6.71582372,0 0,6.71563225 0,15 C0,23.2842355 6.71582372,30 15.0001323,30 C23.2844408,30 30,23.2842355 30,15 C30,6.71563225 23.2844408,0 15.0001323,0 Z" id="Shape" fill="#FFFFFF"></path>
                            <path d="M20.0909258,14.9503527 C19.5560562,14.5620724 18.7941233,14.4067744 18.7941233,14.4067744 C18.7941233,14.4067744 19.4388977,14.0464605 19.702376,13.6864997 C19.9661473,13.3263977 20.0979597,12.7684831 20.120014,12.4790032 C20.1419216,12.189382 20.1932838,10.9750351 19.2115415,10.2760882 C18.4521731,9.73526426 17.5819474,9.5205731 16.4133671,9.45072785 L16.4133671,7 L14.845686,7 L14.845686,9.42177279 C14.4958959,9.42177279 14.0871236,9.42177279 13.6516078,9.42177279 L13.6516078,7 L12.0840732,7 L12.0840732,9.42177279 C10.4837871,9.42177279 9,9.42177279 9,9.42177279 L9,10.9909251 C9,10.9909251 9.65928183,10.9909251 9.90649421,10.9909251 C10.1536333,10.9909251 10.593179,11.0174083 10.7799437,11.2188932 C10.9667818,11.4200249 10.9997532,11.5260287 10.9997532,11.9176988 C10.9997532,12.3095101 10.9998265,18.0219193 10.9998265,18.1702257 C10.9998265,18.3184615 10.9705185,18.5019377 10.8385596,18.6220659 C10.7068204,18.7421941 10.575008,18.770231 10.2598745,18.770231 C9.94481432,18.770231 9.32231394,18.770231 9.32231394,18.770231 L9,20.5850776 C9,20.5850776 10.5326581,20.5850776 12.0840732,20.5850776 L12.0840732,23 L13.651681,23 L13.651681,20.5850776 C14.1333568,20.5850776 14.5527533,20.5850776 14.8457593,20.5850776 L14.8457593,23 L16.4134403,23 L16.4134403,20.5452467 C16.8186957,20.5224358 17.1965482,20.4928451 17.4169438,20.46502 C17.8638897,20.4086636 18.8747201,20.2956682 19.8199008,19.66014 C20.7647884,19.0245412 20.977051,18.0289109 20.9991052,17.0263597 C21.0213793,16.0237379 20.6252826,15.3387036 20.0909258,14.9503527 Z M14,11.0366158 C14,11.0366158 14.5538168,10.9937644 15.0995683,11.0007752 C15.6454828,11.0078574 16.1258158,11.0222366 16.8428123,11.2153899 C17.5594829,11.4086147 17.9827071,11.8806955 17.9993265,12.4386223 C18.0155386,12.996549 17.7383043,13.3683332 17.2498245,13.6044094 C16.7611817,13.8404141 16.0854894,13.9691829 15.4498791,13.9904298 C14.8146761,14.0119628 14,13.9904298 14,13.9904298 L14,11.0366158 L14,11.0366158 Z M17.2639847,18.5939134 C16.9300891,18.7690489 16.2622297,18.9246024 15.6150216,18.9698614 C14.9676089,19.015315 14,18.9958627 14,18.9958627 L14,16.0201151 C14,16.0201151 14.9267836,15.9748561 15.6491676,16.0201151 C16.3714154,16.0656983 16.9778664,16.2405745 17.2502854,16.370451 C17.5228407,16.5000033 18,16.785174 18,17.4660044 C18,18.1465754 17.5976759,18.4189076 17.2639847,18.5939134 Z" id="BTC_alt_1_" fill="#FF8A00"></path>
                        </g>
                    </g>
                </g>
            </g>
        </g>
    </g>
</svg>